<?xml version="1.0" encoding="UTF-8"?>
<!-- Generator: visioncortex VTracer -->
<svg id="svg" version="1.1" xmlns="http://www.w3.org/2000/svg" style="display: block;" viewBox="0 0 1220 341"><path d="M0,0 L8,0 L17,3 L25,7 L34,10 L38,13 L38,15 L42,17 L49,24 L54,31 L78,40 L92,45 L91,53 L84,65 L76,74 L66,79 L64,86 L62,88 L59,88 L60,91 L60,100 L71,100 L75,101 L86,96 L91,97 L103,107 L112,108 L116,111 L116,113 L121,115 L122,120 L126,122 L129,131 L132,145 L134,158 L136,163 L140,166 L142,174 L142,181 L141,185 L151,225 L156,247 L158,264 L158,296 L156,309 L151,315 L144,317 L127,317 L110,311 L109,324 L102,324 L101,322 L102,317 L102,308 L75,299 L64,294 L66,313 L67,324 L-105,324 L-107,302 L-112,269 L-112,241 L-110,219 L-110,206 L-107,184 L-102,170 L-92,153 L-81,141 L-76,136 L-68,131 L-64,130 L-51,130 L-42,132 L-40,133 L-44,122 L-48,109 L-56,93 L-61,85 L-62,82 L-64,82 L-63,78 L-66,72 L-68,65 L-70,58 L-70,48 L-66,37 L-62,31 L-57,27 L-53,22 L-51,21 L-52,18 L-47,15 L-44,14 L-43,11 L-28,4 L-20,3 L-19,2 Z M82,110 L84,112 L85,110 Z M59,111 L59,123 L55,132 L50,134 L30,135 L25,138 L20,146 L14,162 L12,173 L17,186 L21,189 L25,190 L35,194 L40,199 L42,203 L50,210 L55,215 L59,218 L61,222 L65,226 L68,231 L72,230 L84,239 L95,247 L104,255 L105,255 L107,203 L108,171 L104,163 L91,156 L85,149 L79,138 L75,127 L67,116 L62,114 Z M-50,204 L-61,231 L-83,287 L-92,310 L-80,310 L-69,282 L-69,280 L-18,281 L-7,310 L5,310 L-6,281 L-25,233 L-36,205 L-37,204 Z M19,204 L19,310 L29,310 L29,204 Z M109,235 L109,240 L110,240 L110,235 Z " transform="translate(128,7)" style="fill: #FCFCFC;"/><path d="M0,0 L15,0 L26,3 L32,7 L38,14 L41,22 L42,29 L42,84 L41,85 L28,85 L27,75 L16,83 L3,87 L-9,87 L-19,84 L-26,79 L-30,73 L-31,70 L-31,57 L-27,48 L-19,41 L-9,37 L3,35 L27,35 L26,24 L22,17 L17,14 L12,13 L2,13 L-7,16 L-12,21 L-15,27 L-26,27 L-29,26 L-26,16 L-19,8 L-11,3 Z M5,46 L-5,48 L-11,51 L-16,57 L-17,65 L-14,71 L-10,74 L-7,75 L6,75 L16,71 L23,65 L27,58 L27,46 Z " transform="translate(983,147)" style="fill: #F0F1F2;"/><path d="M0,0 L13,0 L24,3 L33,9 L39,16 L44,28 L46,38 L46,48 L-17,49 L-14,61 L-9,69 L-1,73 L3,74 L11,74 L20,71 L25,67 L30,57 L44,57 L43,64 L39,72 L30,81 L22,85 L13,87 L1,87 L-10,84 L-19,78 L-26,70 L-30,62 L-32,54 L-32,33 L-28,21 L-20,10 L-12,4 L-5,1 Z M3,12 L-6,15 L-13,22 L-17,32 L-17,37 L31,36 L30,28 L26,20 L20,15 L11,12 Z " transform="translate(564,147)" style="fill: #F3F3F4;"/><path d="M0,0 L14,0 L15,42 L23,35 L34,31 L45,31 L55,34 L63,41 L68,51 L69,55 L69,116 L55,116 L54,60 L51,51 L45,46 L38,44 L28,45 L22,49 L17,56 L15,63 L14,116 L0,116 Z " transform="translate(1128,116)" style="fill: #F8F9F9;"/><path d="M0,0 L13,0 L26,4 L35,11 L42,21 L46,33 L46,54 L42,66 L34,77 L25,83 L18,86 L12,87 L0,87 L-13,83 L-22,76 L-28,68 L-32,59 L-34,49 L-34,38 L-31,25 L-25,14 L-18,7 L-8,2 Z M3,12 L-6,15 L-13,21 L-18,31 L-19,35 L-19,52 L-15,63 L-8,71 L-2,74 L3,75 L10,75 L19,72 L26,66 L30,58 L32,51 L32,36 L28,24 L22,17 L14,13 L10,12 Z " transform="translate(894,147)" style="fill: #F4F5F6;"/><path d="M0,0 L12,0 L22,3 L31,11 L35,20 L36,25 L36,85 L22,85 L21,29 L18,20 L12,15 L4,13 L-5,14 L-13,19 L-17,26 L-18,30 L-19,84 L-20,85 L-33,85 L-34,84 L-34,3 L-33,2 L-20,2 L-19,3 L-18,10 L-11,4 Z " transform="translate(427,147)" style="fill: #EBEBEC;"/><path d="M0,0 L13,0 L25,3 L34,9 L40,18 L43,27 L43,31 L29,31 L24,19 L16,14 L11,13 L3,13 L-6,16 L-13,24 L-16,32 L-17,39 L-17,49 L-14,61 L-9,69 L-2,73 L3,74 L10,74 L20,71 L26,64 L29,54 L43,54 L42,62 L38,71 L33,78 L24,84 L13,87 L0,87 L-13,83 L-22,76 L-29,65 L-32,54 L-32,34 L-28,21 L-22,12 L-14,5 L-5,1 Z " transform="translate(807,147)" style="fill: #F3F3F5;"/><path d="M0,0 L13,0 L24,3 L32,8 L38,15 L42,25 L42,31 L29,31 L23,19 L18,15 L10,13 L3,13 L-6,16 L-11,20 L-16,30 L-17,35 L-17,53 L-13,64 L-7,71 L2,74 L10,74 L19,71 L24,66 L27,60 L29,54 L43,54 L41,64 L36,74 L27,82 L18,86 L12,87 L0,87 L-9,85 L-19,79 L-26,71 L-30,63 L-33,50 L-33,38 L-30,24 L-24,14 L-20,9 L-11,3 Z " transform="translate(1072,147)" style="fill: #F4F5F6;"/><path d="M0,0 L2,0 L2,26 L22,26 L22,38 L2,38 L3,92 L5,95 L20,97 L20,109 L3,109 L-5,106 L-10,101 L-12,94 L-12,38 L-28,38 L-28,26 L-12,26 L-12,6 Z " transform="translate(502,123)" style="fill: #F5F6F6;"/><path d="M0,0 L13,0 L14,2 L14,114 L13,116 L0,116 L-1,115 L-1,1 Z " transform="translate(663,116)" style="fill: #D9D9DA;"/><path d="M0,0 L13,0 L14,1 L14,115 L13,116 L0,116 Z " transform="translate(626,116)" style="fill: #FAFAFB;"/><path d="M0,0 L3,0 L18,39 L23,52 L23,55 L-20,55 L-19,50 Z " transform="translate(83,223)" style="fill: #F8F9F9;"/><path d="M0,0 L14,0 L14,83 L0,83 Z " transform="translate(701,149)" style="fill: #F8F8F9;"/><path d="M0,0 L13,0 L14,1 L14,82 L13,83 L0,83 Z " transform="translate(358,149)" style="fill: #E7E7F9;"/><path d="M0,0 L6,1 L11,6 L12,8 L12,14 L9,19 L5,21 L-3,21 L-8,16 L-9,14 L-8,5 L-3,1 Z " transform="translate(747,211)" style="fill: #EEEEEF;"/><path d="M0,0 L8,0 L13,4 L14,6 L14,13 L11,18 L7,20 L0,20 L-6,15 L-7,8 L-4,3 Z " transform="translate(361,119)" style="fill: #F1F2F5;"/><path d="M0,0 L8,0 L13,4 L14,6 L14,14 L9,19 L7,20 L0,20 L-5,16 L-6,14 L-6,5 Z " transform="translate(704,119)" style="fill: #F4F4F5;"/></svg>